<?xml version="1.0" encoding="utf-8"?>
<!-- Generator: Adobe Illustrator 30.4.0, SVG Export Plug-In . SVG Version: 9.03 Build 0)  -->
<svg version="1.1" xmlns="http://www.w3.org/2000/svg" xmlns:xlink="http://www.w3.org/1999/xlink" x="0px" y="0px"
	 viewBox="0 0 1024 1024" style="enable-background:new 0 0 1024 1024;" xml:space="preserve">
<g>
</g>
<g id="_x32___x2013__Layer">
	<path style="fill:#F27B21;" d="M175.8397522,833.4971924c34.5031281,0,62.4733734-27.9703369,62.4733734-62.4733887
		c0-34.5031128-27.9702454-62.4734497-62.4733734-62.4734497c-34.503067,0-62.4733887,27.9703369-62.4733887,62.4734497
		C113.3663635,805.5268555,141.3366852,833.4971924,175.8397522,833.4971924z M175.8397522,819.8024902
		c-26.9397278,0-48.7786942-21.8389893-48.7786942-48.7786865c0-26.9397583,21.8389664-48.7786865,48.7786942-48.7786865
		s48.7786865,21.8389282,48.7786865,48.7786865C224.6184387,797.963501,202.7794647,819.8024902,175.8397522,819.8024902z"/>
	<path style="fill:#C65628;" d="M617.7619019,557.2528687c0,97.5682983-79.0947876,176.6630859-176.6630859,176.6630859
		S264.4357605,654.821167,264.4357605,557.2528687c0-97.5685425,79.0947876-176.6630554,176.6630554-176.6630554v-49.5986328
		c-124.9606323,0-226.2614288,101.3007812-226.2614288,226.2616882c0,124.9606323,101.3007965,226.2614746,226.2614288,226.2614746
		S667.3602905,682.213501,667.3602905,557.2528687H617.7619019z"/>
	
		<line style="fill:none;stroke:#FCB748;stroke-width:40.8051262;stroke-miterlimit:10;" x1="441.098938" y1="557.2526855" x2="265.4947815" y2="226.9302063"/>
	<circle style="fill:#FCB748;" cx="265.4947815" cy="226.9302063" r="84.0121155"/>
</g>
</svg>
