<?xml version="1.0" encoding="utf-8"?>
<!-- Generator: Adobe Illustrator 30.4.0, SVG Export Plug-In . SVG Version: 9.03 Build 0)  -->
<svg version="1.1" xmlns="http://www.w3.org/2000/svg" xmlns:xlink="http://www.w3.org/1999/xlink" x="0px" y="0px"
	 viewBox="0 0 1024 1024" style="enable-background:new 0 0 1024 1024;" xml:space="preserve">
<g>
</g>
<g id="_x33___x2013__Layer">
	<path style="fill:#FCB748;" d="M265.4947815,351.3871765c68.7357178,0,124.4569092-55.721344,124.4569092-124.4569092
		c0-68.7357178-55.7211914-124.4570618-124.4569092-124.4570618c-68.7355804,0-124.4569244,55.721344-124.4569244,124.4570618
		C141.0378571,295.6658325,196.759201,351.3871765,265.4947815,351.3871765z M265.4947815,324.1051941
		c-53.6682129,0-97.1749115-43.5067139-97.1749115-97.1749268c0-53.6683502,43.5066986-97.1748962,97.1749115-97.1748962
		s97.1748962,43.506546,97.1748962,97.1748962C362.6696777,280.5984802,319.1629944,324.1051941,265.4947815,324.1051941z"/>
	<circle style="fill:#DA6B69;" cx="781.6693726" cy="792.5625" r="84.0121155"/>
	
		<line style="fill:none;stroke:#DA6B69;stroke-width:37.4047012;stroke-linecap:round;stroke-miterlimit:10;" x1="489.4660034" y1="596.8847656" x2="784.1636353" y2="794.6062622"/>
	<circle style="fill:#C65628;" cx="441.0986633" cy="557.2530518" r="151.0858154"/>
</g>
</svg>
