<?xml version="1.0" encoding="UTF-8"?><svg id="Layer_1" xmlns="http://www.w3.org/2000/svg" viewBox="0 0 528 224"><defs><style>.cls-1,.cls-2,.cls-3,.cls-4{fill:none;}.cls-5{fill:#f27b21;}.cls-6{fill:#fcb748;}.cls-7{fill:#65843e;}.cls-8{fill:#c65628;}.cls-9{fill:#da6b69;}.cls-10{fill:#844e21;}.cls-2{stroke:#da6b69;stroke-linecap:round;stroke-width:9.05px;}.cls-2,.cls-3,.cls-4{stroke-miterlimit:10;}.cls-3{stroke:#f27b21;stroke-width:5.76px;}.cls-4{stroke:#fcb748;stroke-width:9.87px;}</style></defs><g><path class="cls-10" d="m299.4,152.91v5.62h-52.88c.5,7.92,2.88,13.95,7.16,18.09,4.27,4.15,10.22,6.22,17.84,6.22,4.42,0,8.7-.54,12.84-1.62,4.15-1.08,8.26-2.71,12.34-4.88v10.88c-4.12,1.75-8.35,3.08-12.69,4-4.33.92-8.73,1.38-13.19,1.38-11.17,0-20.01-3.25-26.53-9.75-6.52-6.5-9.78-15.29-9.78-26.38s3.09-20.55,9.28-27.28c6.19-6.73,14.53-10.09,25.03-10.09,9.42,0,16.86,3.03,22.34,9.09,5.48,6.06,8.22,14.3,8.22,24.72Zm-11.5-3.38c-.08-6.29-1.84-11.31-5.28-15.06s-7.99-5.62-13.66-5.62c-6.42,0-11.55,1.81-15.41,5.44-3.85,3.62-6.07,8.73-6.66,15.31l41-.06Z"/><path class="cls-10" d="m318.27,93.53h11.5v97.25h-11.5v-97.25Z"/><path class="cls-10" d="m353.83,93.53h11.5v14.56h-11.5v-14.56Zm0,27.25h11.5v70h-11.5v-70Z"/><path class="cls-10" d="m416.52,119.1c10,0,17.85,3.25,23.56,9.75,5.71,6.5,8.56,15.5,8.56,27s-2.85,20.45-8.56,26.97c-5.71,6.52-13.56,9.78-23.56,9.78s-17.91-3.26-23.59-9.78c-5.69-6.52-8.53-15.51-8.53-26.97s2.84-20.5,8.53-27,13.55-9.75,23.59-9.75Zm0,9.75c-6.17,0-11.04,2.41-14.62,7.22-3.58,4.81-5.38,11.41-5.38,19.78s1.78,14.97,5.34,19.78,8.45,7.22,14.66,7.22,10.98-2.42,14.56-7.25c3.58-4.83,5.38-11.42,5.38-19.75s-1.79-14.86-5.38-19.72c-3.58-4.85-8.44-7.28-14.56-7.28Z"/><path class="cls-10" d="m512.33,122.85v10.88c-3.25-1.67-6.62-2.92-10.12-3.75-3.5-.83-7.12-1.25-10.88-1.25-5.71,0-9.99.88-12.84,2.62-2.85,1.75-4.28,4.38-4.28,7.88,0,2.67,1.02,4.76,3.06,6.28,2.04,1.52,6.15,2.97,12.31,4.34l3.94.88c8.17,1.75,13.97,4.22,17.41,7.41s5.16,7.64,5.16,13.34c0,6.5-2.57,11.65-7.72,15.44-5.15,3.79-12.22,5.69-21.22,5.69-3.75,0-7.66-.37-11.72-1.09s-8.34-1.82-12.84-3.28v-11.88c4.25,2.21,8.44,3.87,12.56,4.97,4.12,1.1,8.21,1.66,12.25,1.66,5.42,0,9.58-.93,12.5-2.78,2.92-1.85,4.38-4.47,4.38-7.84,0-3.12-1.05-5.52-3.16-7.19-2.1-1.67-6.72-3.27-13.84-4.81l-4-.94c-7.12-1.5-12.27-3.8-15.44-6.91-3.17-3.1-4.75-7.36-4.75-12.78,0-6.58,2.33-11.67,7-15.25,4.67-3.58,11.29-5.38,19.88-5.38,4.25,0,8.25.31,12,.94s7.21,1.56,10.38,2.81Z"/></g><path class="cls-5" d="m7.45,62.65c0,8.35,6.77,15.11,15.11,15.11,8.35,0,15.11-6.77,15.11-15.11,0-8.35-6.77-15.11-15.11-15.11s-15.11,6.77-15.11,15.11Zm3.31,0c0-6.52,5.28-11.8,11.8-11.8,6.52,0,11.8,5.28,11.8,11.8,0,6.52-5.28,11.8-11.8,11.8-6.52,0-11.8-5.28-11.8-11.8Z"/><circle class="cls-5" cx="22.57" cy="62.65" r="9.27"/><line class="cls-3" x1="21.19" y1="62.65" x2="105.67" y2="93.33"/><path class="cls-6" d="m155.48,50.84c0,16.63,13.48,30.11,30.11,30.11,16.63,0,30.11-13.48,30.11-30.11,0-16.63-13.48-30.11-30.11-30.11s-30.11,13.48-30.11,30.11Zm6.6,0c0-12.98,10.53-23.51,23.51-23.51,12.98,0,23.51,10.53,23.51,23.51,0,12.98-10.53,23.51-23.51,23.51-12.98,0-23.51-10.53-23.51-23.51Z"/><circle class="cls-6" cx="185.59" cy="50.84" r="20.33"/><circle class="cls-9" cx="48.74" cy="175.73" r="20.33"/><path class="cls-9" d="m17.54,175.73c0,17.23,13.97,31.2,31.2,31.2,17.23,0,31.2-13.97,31.2-31.2s-13.97-31.2-31.2-31.2c-17.23,0-31.2,13.97-31.2,31.2Zm6.84,0c0-13.45,10.91-24.36,24.36-24.36,13.45,0,24.36,10.91,24.36,24.36,0,13.45-10.91,24.36-24.36,24.36-13.45,0-24.36-10.91-24.36-24.36Z"/><path class="cls-8" d="m105.67,136.07c-23.61,0-42.74-19.14-42.74-42.74s19.14-42.74,42.74-42.74,42.74,19.14,42.74,42.74h12c0-30.23-24.51-54.74-54.74-54.74s-54.74,24.51-54.74,54.74,24.51,54.74,54.74,54.74v-12Z"/><g><path class="cls-7" d="m228.83,28.38h8.65l10.81,41.07,10.76-41.07h10.2l10.81,41.07,10.76-41.07h8.65l-13.77,52.63h-10.2l-11.32-43.13-11.37,43.13h-10.2l-13.77-52.63Z"/><path class="cls-7" d="m357.58,52.53v4.23h-39.75c.38,5.95,2.17,10.49,5.38,13.6,3.21,3.12,7.68,4.68,13.42,4.68,3.32,0,6.54-.41,9.66-1.22,3.12-.81,6.21-2.04,9.28-3.67v8.18c-3.1,1.32-6.28,2.32-9.54,3.01-3.26.69-6.56,1.03-9.92,1.03-8.4,0-15.04-2.44-19.95-7.33s-7.35-11.5-7.35-19.83,2.33-15.45,6.98-20.51c4.65-5.06,10.92-7.59,18.82-7.59,7.08,0,12.68,2.28,16.8,6.84,4.12,4.56,6.18,10.75,6.18,18.58Zm-8.65-2.54c-.06-4.73-1.39-8.5-3.97-11.32s-6.01-4.23-10.27-4.23c-4.82,0-8.69,1.36-11.58,4.09-2.9,2.73-4.57,6.56-5,11.51l30.82-.05Z"/><path class="cls-7" d="m380.14,36.36c1.82-3.13,4.11-5.46,6.88-6.98,2.77-1.52,6.08-2.28,9.94-2.28,6.39,0,11.58,2.54,15.58,7.61,3.99,5.07,5.99,11.75,5.99,20.02s-2,14.94-5.99,20.02c-3.99,5.07-9.19,7.61-15.58,7.61-3.85,0-7.17-.76-9.94-2.28-2.77-1.52-5.07-3.84-6.88-6.98v7.89h-8.69V7.89h8.69v28.47Zm29.41,18.37c0-6.36-1.31-11.35-3.92-14.97-2.62-3.62-6.21-5.43-10.78-5.43s-8.17,1.81-10.78,5.43c-2.62,3.62-3.92,8.61-3.92,14.97s1.31,11.35,3.92,14.97c2.62,3.62,6.21,5.43,10.78,5.43s8.17-1.81,10.78-5.43c2.62-3.62,3.92-8.61,3.92-14.97Z"/></g><line class="cls-4" x1="105.67" y1="93.33" x2="185.59" y2="50.84"/><path class="cls-8" d="m131,98.37h10.87c.23-1.65.35-3.33.35-5.04,0-20.19-16.37-36.55-36.55-36.55s-36.55,16.37-36.55,36.55,16.37,36.55,36.55,36.55c4.2,0,8.23-.72,11.99-2.02v-29.5h13.34Z"/><line class="cls-2" x1="96.08" y1="105.03" x2="48.24" y2="176.33"/><rect class="cls-10" x="203.64" y="93.33" width="12" height="97.48"/><circle class="cls-8" cx="105.67" cy="93.33" r="36.55"/><rect class="cls-10" x="148.41" y="105.88" width="12" height="84.93"/><rect class="cls-10" x="157.93" y="96.37" width="12" height="91.42" transform="translate(21.86 306) rotate(-90)"/><circle class="cls-1" cx="105.67" cy="93.33" r="54.74"/><circle class="cls-1" cx="105.67" cy="93.33" r="42.74"/></svg>