<?xml version="1.0" encoding="UTF-8"?>
<svg id="Layer_1" xmlns="http://www.w3.org/2000/svg" version="1.1" viewBox="0 0 600 600">
  <!-- Generator: Adobe Illustrator 30.4.0, SVG Export Plug-In . SVG Version: 2.1.4 Build 226)  -->
  <circle cx="62.287" cy="478.336" r="26.447" style="fill: #f27b21;"/>
  <line x1="62.287" y1="482.276" x2="245.333" y2="330.82" style="fill: none; stroke: #f27b21; stroke-miterlimit: 10; stroke-width: 16.426px;"/>
  <path d="M62.287,521.447c23.809,0,43.111-19.301,43.111-43.111,0-23.809-19.301-43.111-43.111-43.111-23.809,0-43.111,19.301-43.111,43.111s19.301,43.111,43.111,43.111ZM62.287,511.996c-18.59,0-33.66-15.07-33.66-33.66,0-18.59,15.07-33.66,33.66-33.66,18.59,0,33.66,15.07,33.66,33.66,0,18.59-15.07,33.66-33.66,33.66Z" style="fill: #f27b21;"/>
  <path d="M367.242,330.82c0,67.329-54.581,121.909-121.909,121.909s-121.909-54.581-121.909-121.909,54.581-121.909,121.909-121.909v-34.226c-86.231,0-156.135,69.904-156.135,156.135s69.904,156.135,156.135,156.135,156.135-69.904,156.135-156.135h-34.226Z" style="fill: #c65628;"/>
  <line x1="245.333" y1="330.82" x2="124.155" y2="102.876" style="fill: none; stroke: #fcb748; stroke-miterlimit: 10; stroke-width: 28.158px;"/>
  <circle cx="124.155" cy="102.876" r="57.974" style="fill: #fcb748;"/>
  <path d="M124.155,188.759c47.432,0,85.883-38.451,85.883-85.883,0-47.432-38.451-85.884-85.883-85.884-47.432,0-85.883,38.451-85.883,85.884,0,47.432,38.451,85.883,85.883,85.883ZM124.155,169.933c-37.035,0-67.057-30.022-67.057-67.057,0-37.035,30.022-67.057,67.057-67.057,37.035,0,67.057,30.022,67.057,67.057,0,37.035-30.022,67.057-67.057,67.057Z" style="fill: #fcb748;"/>
  <circle cx="480.349" cy="493.199" r="57.974" style="fill: #da6b69;"/>
  <line x1="278.709" y1="358.169" x2="482.07" y2="494.609" style="fill: none; stroke: #da6b69; stroke-linecap: round; stroke-miterlimit: 10; stroke-width: 25.812px;"/>
  <circle cx="245.333" cy="330.82" r="104.259" style="fill: #c65628;"/>
  <path d="M480.349,582.193c49.15,0,88.994-39.844,88.994-88.994,0-49.15-39.844-88.994-88.994-88.994-49.15,0-88.994,39.844-88.994,88.994,0,49.15,39.844,88.994,88.994,88.994ZM480.349,562.685c-38.376,0-69.486-31.11-69.486-69.486,0-38.376,31.11-69.486,69.486-69.486,38.376,0,69.486,31.11,69.486,69.486,0,38.376-31.11,69.486-69.486,69.486Z" style="fill: #da6b69;"/>
  <g>
    <rect x="533.196" y="54.251" width="36.009" height="278.044" style="fill: #844e21;"/>
    <rect x="407.429" y="48.388" width="34.226" height="286.819" transform="translate(232.745 616.34) rotate(-90)" style="fill: #844e21;"/>
    <rect x="367.242" y="54.251" width="34.226" height="240.768" transform="translate(768.71 349.27) rotate(-180)" style="fill: #844e21;"/>
  </g>
  <circle cx="245.333" cy="330.82" r="156.135" style="fill: none;"/>
  <line x1="401.468" y1="297.078" x2="367.242" y2="297.078" style="fill: none;"/>
</svg>