<?xml version="1.0" encoding="UTF-8"?>
<svg id="Layer_1" xmlns="http://www.w3.org/2000/svg" version="1.1" viewBox="0 0 515.008 221.462">
  <!-- Generator: Adobe Illustrator 30.4.0, SVG Export Plug-In . SVG Version: 2.1.4 Build 226)  -->
  <g>
    <path d="M287.992,87.787v5.625h-52.875c.5,7.917,2.885,13.948,7.156,18.094,4.271,4.146,10.219,6.219,17.844,6.219,4.416,0,8.697-.541,12.844-1.625,4.146-1.083,8.26-2.708,12.344-4.875v10.875c-4.125,1.75-8.354,3.084-12.688,4-4.334.916-8.729,1.375-13.188,1.375-11.167,0-20.011-3.25-26.531-9.75-6.521-6.5-9.781-15.291-9.781-26.375,0-11.458,3.094-20.552,9.281-27.281,6.188-6.729,14.531-10.094,25.031-10.094,9.416,0,16.864,3.031,22.344,9.094,5.479,6.062,8.219,14.303,8.219,24.719ZM276.492,84.412c-.084-6.291-1.844-11.312-5.281-15.062s-7.99-5.625-13.656-5.625c-6.417,0-11.553,1.812-15.406,5.438-3.854,3.625-6.073,8.729-6.656,15.312l41-.062Z" style="fill: #844e21;"/>
    <path d="M306.867,28.412h11.5v97.25h-11.5V28.412Z" style="fill: #844e21;"/>
    <path d="M342.43,28.412h11.5v14.562h-11.5v-14.562ZM342.43,55.662h11.5v70h-11.5V55.662Z" style="fill: #844e21;"/>
    <path d="M405.117,53.975c10,0,17.854,3.25,23.562,9.75,5.708,6.5,8.562,15.5,8.562,27s-2.854,20.448-8.562,26.969c-5.709,6.521-13.562,9.781-23.562,9.781s-17.906-3.26-23.594-9.781c-5.688-6.521-8.531-15.51-8.531-26.969s2.844-20.5,8.531-27,13.552-9.75,23.594-9.75ZM405.117,63.725c-6.167,0-11.042,2.406-14.625,7.219-3.584,4.812-5.375,11.406-5.375,19.781s1.781,14.969,5.344,19.781,8.447,7.219,14.656,7.219c6.125,0,10.979-2.416,14.562-7.25,3.583-4.833,5.375-11.416,5.375-19.75,0-8.291-1.792-14.864-5.375-19.719-3.584-4.854-8.438-7.281-14.562-7.281Z" style="fill: #844e21;"/>
    <path d="M500.93,57.725v10.875c-3.25-1.666-6.625-2.916-10.125-3.75-3.5-.833-7.125-1.25-10.875-1.25-5.709,0-9.99.875-12.844,2.625-2.854,1.75-4.281,4.375-4.281,7.875,0,2.667,1.021,4.761,3.062,6.281,2.041,1.521,6.146,2.969,12.312,4.344l3.938.875c8.166,1.75,13.969,4.219,17.406,7.406s5.156,7.636,5.156,13.344c0,6.5-2.573,11.646-7.719,15.438-5.146,3.792-12.219,5.688-21.219,5.688-3.75,0-7.656-.365-11.719-1.094s-8.344-1.822-12.844-3.281v-11.875c4.25,2.209,8.438,3.865,12.562,4.969,4.125,1.104,8.208,1.656,12.25,1.656,5.416,0,9.583-.927,12.5-2.781,2.916-1.854,4.375-4.469,4.375-7.844,0-3.125-1.053-5.521-3.156-7.188-2.104-1.666-6.719-3.271-13.844-4.812l-4-.938c-7.125-1.5-12.271-3.802-15.438-6.906-3.167-3.104-4.75-7.364-4.75-12.781,0-6.583,2.333-11.666,7-15.25,4.666-3.583,11.291-5.375,19.875-5.375,4.25,0,8.25.312,12,.938s7.208,1.562,10.375,2.812Z" style="fill: #844e21;"/>
  </g>
  <path d="M30.206,191.98c8.348,0,15.115-6.767,15.115-15.115,0-8.348-6.767-15.115-15.115-15.115-8.348,0-15.115,6.767-15.115,15.115s6.767,15.115,15.115,15.115ZM30.206,188.667c-6.518,0-11.802-5.284-11.802-11.802,0-6.518,5.284-11.802,11.802-11.802,6.518,0,11.802,5.284,11.802,11.802,0,6.518-5.284,11.802-11.802,11.802Z" style="fill: #f27b21;"/>
  <circle cx="30.206" cy="176.865" r="9.272" style="fill: #f27b21;"/>
  <line x1="30.206" y1="178.246" x2="94.383" y2="125.145" style="fill: none; stroke: #f27b21; stroke-miterlimit: 10; stroke-width: 5.759px;"/>
  <path d="M51.897,75.337c16.63,0,30.111-13.481,30.111-30.111,0-16.63-13.481-30.111-30.111-30.111-16.63,0-30.111,13.481-30.111,30.111s13.481,30.111,30.111,30.111ZM51.897,68.737c-12.985,0-23.511-10.526-23.511-23.511,0-12.985,10.526-23.511,23.511-23.511,12.985,0,23.511,10.526,23.511,23.511,0,12.985-10.526,23.511-23.511,23.511Z" style="fill: #fcb748;"/>
  <circle cx="51.897" cy="45.226" r="20.326" style="fill: #fcb748;"/>
  <circle cx="176.782" cy="182.076" r="20.326" style="fill: #da6b69;"/>
  <path d="M176.782,213.278c17.232,0,31.202-13.97,31.202-31.202,0-17.232-13.97-31.202-31.202-31.202s-31.202,13.97-31.202,31.202c0,17.232,13.97,31.202,31.202,31.202ZM176.782,206.438c-13.455,0-24.362-10.907-24.362-24.362,0-13.455,10.907-24.362,24.362-24.362,13.455,0,24.362,10.907,24.362,24.362,0,13.455-10.907,24.362-24.362,24.362Z" style="fill: #da6b69;"/>
  <path d="M137.126,125.145c0,23.606-19.136,42.742-42.742,42.742s-42.742-19.136-42.742-42.742,19.136-42.742,42.742-42.742v-12c-30.233,0-54.742,24.509-54.742,54.742s24.509,54.742,54.742,54.742,54.742-24.509,54.742-54.742h-12Z" style="fill: #c65628;"/>
  <g>
    <path d="M216.57,155.812h8.646l10.808,41.067,10.76-41.067h10.196l10.808,41.067,10.76-41.067h8.646l-13.767,52.627h-10.196l-11.324-43.135-11.371,43.135h-10.196l-13.768-52.627Z" style="fill: #65843e;"/>
    <path d="M345.317,179.964v4.229h-39.752c.376,5.952,2.169,10.486,5.38,13.604s7.683,4.675,13.415,4.675c3.32,0,6.539-.406,9.656-1.222,3.117-.814,6.21-2.036,9.28-3.665v8.176c-3.102,1.315-6.281,2.318-9.538,3.008-3.259.688-6.563,1.033-9.915,1.033-8.396,0-15.044-2.443-19.946-7.33-4.903-4.887-7.354-11.496-7.354-19.829,0-8.614,2.326-15.45,6.978-20.51,4.652-5.059,10.925-7.589,18.818-7.589,7.079,0,12.679,2.279,16.799,6.837,4.118,4.558,6.179,10.753,6.179,18.584ZM336.671,177.427c-.063-4.73-1.387-8.505-3.971-11.324s-6.007-4.229-10.267-4.229c-4.824,0-8.686,1.363-11.583,4.088-2.897,2.726-4.565,6.563-5.004,11.513l30.824-.047Z" style="fill: #65843e;"/>
    <path d="M367.871,163.8c1.816-3.132,4.111-5.458,6.884-6.978s6.085-2.279,9.938-2.279c6.391,0,11.583,2.538,15.576,7.612,3.994,5.074,5.991,11.747,5.991,20.017s-1.997,14.942-5.991,20.017c-3.993,5.075-9.186,7.612-15.576,7.612-3.853,0-7.165-.76-9.938-2.279-2.772-1.519-5.067-3.845-6.884-6.978v7.895h-8.693v-73.113h8.693v28.475ZM397.285,182.172c0-6.358-1.309-11.348-3.924-14.966-2.615-3.617-6.21-5.427-10.783-5.427s-8.169,1.81-10.784,5.427c-2.615,3.618-3.923,8.607-3.923,14.966s1.308,11.348,3.923,14.966,6.21,5.427,10.784,5.427,8.168-1.809,10.783-5.427,3.924-8.606,3.924-14.966Z" style="fill: #65843e;"/>
  </g>
  <line x1="94.383" y1="125.145" x2="51.897" y2="45.226" style="fill: none; stroke: #fcb748; stroke-miterlimit: 10; stroke-width: 9.872px;"/>
  <path d="M99.42,99.81v-10.865c-1.647-.227-3.327-.354-5.036-.354-20.188,0-36.554,16.366-36.554,36.554s16.366,36.554,36.554,36.554,36.554-16.366,36.554-36.554c0-4.202-.718-8.234-2.023-11.991h-29.495v-13.344Z" style="fill: #c65628;"/>
  <line x1="106.085" y1="134.734" x2="177.385" y2="182.571" style="fill: none; stroke: #da6b69; stroke-linecap: round; stroke-miterlimit: 10; stroke-width: 9.05px;"/>
  <rect x="195.31" y="28.178" width="12.625" height="97.484" style="fill: #844e21;"/>
  <circle cx="94.383" cy="125.145" r="36.554" style="fill: #c65628;"/>
  <rect x="151.216" y="26.122" width="12" height="100.561" transform="translate(80.813 233.618) rotate(-90)" style="fill: #844e21;"/>
  <rect x="137.126" y="28.178" width="12" height="84.415" transform="translate(286.251 140.771) rotate(-180)" style="fill: #844e21;"/>
  <circle cx="94.383" cy="125.145" r="54.742" style="fill: none;"/>
  <circle cx="94.383" cy="125.145" r="42.742" style="fill: none;"/>
</svg>