<?xml version="1.0" encoding="utf-8"?>
<!-- Generator: Adobe Illustrator 30.4.0, SVG Export Plug-In . SVG Version: 9.03 Build 0)  -->
<svg version="1.1" xmlns="http://www.w3.org/2000/svg" xmlns:xlink="http://www.w3.org/1999/xlink" x="0px" y="0px"
	 viewBox="0 0 1024 1024" style="enable-background:new 0 0 1024 1024;" xml:space="preserve">
<g>
</g>
<g id="_x34___x2013__Layer">
	<path style="fill:#DA6B69;" d="M781.6693726,921.5267944c71.2250977,0,128.9642334-57.7393188,128.9642334-128.9642334
		c0-71.2250366-57.7391357-128.9644165-128.9642334-128.9644165c-71.2248535,0-128.9642334,57.7393799-128.9642334,128.9644165
		C652.7051392,863.7874756,710.444519,921.5267944,781.6693726,921.5267944z M781.6693726,893.2567139
		c-55.6118164,0-100.6941528-45.0823364-100.6941528-100.6941528c0-55.6119995,45.0823364-100.6942139,100.6941528-100.6942139
		c55.6118774,0,100.6942139,45.0822144,100.6942139,100.6942139
		C882.3635864,848.1743774,837.28125,893.2567139,781.6693726,893.2567139z"/>
	<g>
		<rect x="858.2525635" y="156.4660645" style="fill:#844E21;" width="52.1819" height="402.9242554"/>
		
			<rect x="675.9992676" y="147.970108" transform="matrix(6.123234e-17 -1 1 6.123234e-17 345.0083313 1056.5887451)" style="fill:#844E21;" width="49.5986404" height="415.6402283"/>
		
			<rect x="617.7617798" y="156.4660645" transform="matrix(-1 -1.224647e-16 1.224647e-16 -1 1285.1221924 661.8388062)" style="fill:#844E21;" width="49.5986404" height="348.9066772"/>
	</g>
</g>
</svg>
