<?xml version="1.0" encoding="utf-8"?>
<!-- Generator: Adobe Illustrator 30.4.0, SVG Export Plug-In . SVG Version: 9.03 Build 0)  -->
<svg version="1.1" xmlns="http://www.w3.org/2000/svg" xmlns:xlink="http://www.w3.org/1999/xlink" x="0px" y="0px"
	 viewBox="0 0 1024 1024" style="enable-background:new 0 0 1024 1024;" xml:space="preserve">
<g>
</g>
<g id="App_Icon_Shape">
	<path style="fill:#606060;" d="M0,0v1024h1024V0H0z M1023.999939,650.999939
		c0,14.2427368,0.0059204,28.4832153-0.0840454,42.7259521c-0.0689087,11.9963989-0.2072754,23.9901733-0.5323486,35.9829712
		c-0.708313,26.133606-2.24646,52.4940796-6.8920898,78.3375854c-4.7127686,26.2171631-12.4039917,50.6175537-24.5288696,74.4379272
		c-11.9170532,23.4121094-27.4890137,44.8369751-46.0651245,63.4130859s-40.0009766,34.1480713-63.4130859,46.0651245
		c-23.8203735,12.1248779-48.2207031,19.81604-74.4379272,24.5288696
		c-25.8434448,4.6456299-52.2039795,6.1837769-78.3375854,6.8920898
		c-11.9927979,0.3250732-23.9865723,0.4634399-35.9829102,0.5323486
		c-14.2427368,0.0899658-28.4832153,0.0839844-42.7259521,0.0839844H373c-14.2427368,0-28.4832153,0.0059814-42.7259521-0.0839844
		c-11.9963379-0.0689087-23.9901123-0.2072754-35.9829102-0.5323486c-26.133606-0.708313-52.4941406-2.24646-78.3375854-6.8920898
		c-26.2172241-4.7128296-50.6175537-12.4039917-74.4379272-24.5288696
		c-23.4121094-11.9170532-44.8369751-27.4890137-63.4130859-46.0651245s-34.1480713-40.0009766-46.0651245-63.4130859
		c-12.1248779-23.8203735-19.8161011-48.2207642-24.5288696-74.4379272
		c-4.6456299-25.8435059-6.1837769-52.2039795-6.8920898-78.3375854
		c-0.3250732-11.9927979-0.4634399-23.9865723-0.5323486-35.9829712
		c-0.0900269-14.2427368-0.0840454-28.4832153-0.0840454-42.7259521V373c0-14.2427368-0.0059814-28.4832153,0.0840454-42.7259521
		c0.0689087-11.9963379,0.2072754-23.9901733,0.5323486-35.9829102c0.708313-26.133606,2.24646-52.4941406,6.8920898-78.3375854
		c4.7127686-26.2172241,12.4039917-50.6175537,24.5288696-74.4379883
		c11.9170532-23.4120483,27.4890137-44.8369141,46.0651245-63.4130249s40.0009766-34.1480713,63.4130859-46.0651245
		c23.8203735-12.124939,48.2207031-19.8161011,74.4379272-24.5288696
		c25.8434448-4.6456909,52.2039795-6.1837769,78.3375854-6.8921509c11.9927979-0.3250122,23.9865723-0.4633789,35.9829102-0.5323486
		C344.5167847-0.0059204,358.7572632,0.000061,373,0.000061h278c14.2427368,0,28.4832153-0.0059814,42.7259521,0.0839844
		c11.9963379,0.0689697,23.9901123,0.2073364,35.9829102,0.5323486c26.133606,0.708374,52.4941406,2.24646,78.3375854,6.8921509
		c26.2172241,4.7127686,50.6175537,12.4039307,74.4379272,24.5288696
		c23.4121094,11.9170532,44.8369751,27.4890137,63.4130859,46.0651245s34.1480713,40.0009766,46.0651245,63.4130249
		c12.1248779,23.8204346,19.8161011,48.2207642,24.5288696,74.4379883
		c4.6456299,25.8434448,6.1837769,52.2039795,6.8920898,78.3375854c0.3250732,11.9927368,0.4634399,23.9865723,0.5323486,35.9829102
		c0.0899658,14.2427368,0.0840454,28.4832153,0.0840454,42.7259521V650.999939z"/>
</g>
</svg>
